<?xml version="1.0" encoding="utf-8"?>
<!-- Generator: Adobe Illustrator 23.0.6, SVG Export Plug-In . SVG Version: 6.00 Build 0)  -->
<svg version="1.1" id="Layer_1" xmlns="http://www.w3.org/2000/svg" xmlns:xlink="http://www.w3.org/1999/xlink" x="0px" y="0px"
	 width="240.5px" height="75px" viewBox="0 0 240.5 75" style="enable-background:new 0 0 240.5 75;" xml:space="preserve" fill="#368092">
	 <!--width="240.5px" height="75px" viewBox="0 0 240.5 75" style="enable-background:new 0 0 240.5 75;" xml:space="preserve" fill="#91D8F7">-->
<style type="text/css">
	.st0{opacity:0.95;}
</style>
<g id="Layer_3">
</g>
<g id="filled">
	<path d="M239.5,1V74H1V1H239.5 M240.5,0H0v75h240.5V0L240.5,0z"/>
	<g>
		<path d="M92.4,27.4c2.2,0.3,3.9,1.1,5.1,2.4c1.2,1.2,1.9,2.8,1.9,4.6c0,1.9-0.7,3.5-2.1,4.8c-0.8,0.7-1.7,1.2-2.6,1.4
			c-1,0.2-2.4,0.4-4.3,0.4h-9.4v-1.7h2.6V16.5h-2.6v-1.7h9.9c2.4,0,4.2,0.5,5.5,1.5c1.3,1,1.9,2.4,1.9,4.3c0,1.6-0.5,2.9-1.5,4
			C95.8,25.7,94.3,26.7,92.4,27.4z M87.3,26.6h0.8c2.1,0,3.7-0.5,4.8-1.4c1.1-0.9,1.6-2.3,1.6-4.1c0-1.7-0.5-2.8-1.5-3.6
			c-1-0.7-2.7-1.1-5-1.1h-0.7V26.6z M87.3,39.3h0.6c2.6,0,4.3-0.2,5.2-0.7c1.6-0.9,2.4-2.4,2.4-4.3c0-1.7-0.7-3.1-2.1-4.2
			c-1.4-1.1-3.2-1.7-5.4-1.7h-0.7V39.3z"/>
		<path d="M109.7,33.1l-2.4,6.1h2.6V41h-6.3v-1.7h1.5l9.8-25h2.1l9.8,25h1.5V41h-7.9v-1.7h2.4l-2.4-6.1L109.7,33.1L109.7,33.1z
			 M110.4,31.4h9.4l-4.7-12L110.4,31.4z"/>
		<path d="M140.9,29.3l-7.6-12.9h-1.5v-1.7h8.5v1.7h-2.6l6.1,10.2l6.2-10.2h-2.6v-1.7h6.5v1.7h-1.5L144.7,29v10.3h2.6V41h-9v-1.7
			h2.6L140.9,29.3L140.9,29.3z"/>
		<path d="M176,41H158v-1.7h2.6V16.5H158v-1.7h17.3v4.4h-2v-2.6h-9v10.1h6.3v-2.2h1.8v6.1h-1.8v-2.2h-6.3V39h9.7v-2.8h2L176,41
			L176,41z"/>
		<path d="M186.8,29.4v9.9h2.6V41h-9v-1.7h2.6V16.5h-2.6v-1.7h9.3c3,0,5.2,0.5,6.6,1.6c1.5,1.1,2.2,2.7,2.2,5c0,1.8-0.5,3.3-1.4,4.5
			c-0.9,1.2-2.3,2.2-4.1,2.8l7,10.6h1.9V41h-5.4l-7.2-11.6H186.8z M186.8,27.7h1.1c2.3,0,4-0.5,5.1-1.6c1.1-1,1.7-2.6,1.7-4.7
			c0-1.9-0.5-3.2-1.5-3.9s-2.9-1.1-5.7-1.1h-0.7L186.8,27.7L186.8,27.7z"/>
		<path d="M219.2,41.7c-3.8,0-6.7-1.2-8.9-3.7c-2.2-2.5-3.3-5.8-3.3-10.1s1.1-7.6,3.2-10.1c2.2-2.5,5.1-3.7,8.9-3.7
			c3.8,0,6.7,1.2,8.9,3.7c2.2,2.5,3.2,5.8,3.2,10.1s-1.1,7.6-3.2,10.1C225.9,40.4,223,41.7,219.2,41.7z M219.2,39.9
			c2.5,0,4.5-1.1,6-3.3c1.5-2.2,2.2-5.1,2.2-8.8s-0.7-6.6-2.2-8.8s-3.5-3.3-6-3.3c-2.5,0-4.5,1.1-6,3.3c-1.5,2.2-2.2,5.1-2.2,8.8
			c0,3.7,0.7,6.6,2.2,8.8C214.7,38.8,216.7,39.9,219.2,39.9z"/>
	</g>
	<g class="st0">
		<path d="M80.6,49.7h1.3v5.8c0,0.9,0.2,1.6,0.5,2c0.3,0.4,0.9,0.6,1.6,0.6c0.7,0,1.2-0.2,1.6-0.6c0.3-0.4,0.5-1.1,0.5-2v-5.9h1.2
			v5.8c0,0.8-0.1,1.4-0.2,1.9c-0.2,0.4-0.4,0.8-0.9,1.1c-0.5,0.4-1.2,0.6-2.1,0.6c-1.2,0-2-0.3-2.6-0.9c-0.5-0.6-0.8-1.5-0.8-2.8
			L80.6,49.7L80.6,49.7z"/>
		<path d="M90.1,58.9v-9.2h1.3l4.6,7.1v-7.1h1.1v9.2h-1.3l-4.6-7.1v7.1H90.1z"/>
		<path d="M100.1,58.9v-9.2h1.3v9.2H100.1z"/>
		<path d="M106.8,58.9l-3.5-9.2h1.3l2.8,7.5l2.8-7.5h1.1l-3.3,9.2C108.1,58.9,106.8,58.9,106.8,58.9z"/>
		<path d="M113.2,58.9v-9.2h5.2v1h-3.8v3h3.2v1h-3.2V58h4.1v1H113.2z"/>
		<path d="M120.7,58.9v-9.2h2.8c0.9,0,1.6,0.2,2,0.6s0.7,1,0.7,1.7c0,0.6-0.2,1.1-0.5,1.6c-0.3,0.5-0.8,0.8-1.4,1l3.1,4.3h-1.6
			l-2.6-3.9H122v3.9L120.7,58.9L120.7,58.9z M122,54.1h0.4c0.8,0,1.4-0.2,1.8-0.5c0.4-0.3,0.6-0.8,0.6-1.4c0-1-0.7-1.4-2.1-1.4H122
			L122,54.1L122,54.1z"/>
		<path d="M128.7,58.8v-1.3c1,0.5,1.9,0.7,2.6,0.7c0.5,0,0.9-0.1,1.2-0.4c0.3-0.3,0.5-0.6,0.5-1.1c0-0.4-0.1-0.7-0.3-0.9
			c-0.2-0.3-0.6-0.5-1.1-0.8l-0.6-0.4c-0.8-0.5-1.3-0.9-1.7-1.3c-0.3-0.4-0.5-0.9-0.5-1.4c0-0.7,0.3-1.3,0.8-1.8
			c0.5-0.5,1.2-0.7,2-0.7c0.7,0,1.5,0.1,2.2,0.4V51c-1-0.4-1.7-0.6-2.2-0.6c-0.4,0-0.8,0.1-1.1,0.4c-0.3,0.2-0.4,0.5-0.4,0.9
			c0,0.3,0.1,0.6,0.3,0.8s0.6,0.5,1.2,0.8l0.7,0.4c0.8,0.5,1.4,0.9,1.7,1.3c0.3,0.4,0.5,0.9,0.5,1.5c0,0.8-0.3,1.4-0.9,1.9
			c-0.6,0.5-1.4,0.7-2.3,0.7C130.5,59.2,129.7,59,128.7,58.8z"/>
		<path d="M136.7,58.9v-9.2h1.3v9.2H136.7z"/>
		<path d="M143.2,58.9v-8.2h-3.3v-1h7.8v1h-3.3v8.2H143.2z"/>
		<path d="M151.6,58.9v-3.8l-3.1-5.4h1.5l2.4,4.2l2.6-4.2h1.2l-3.3,5.3v3.9H151.6z"/>
		<path d="M158.2,60.9v-0.5c0.4-0.1,0.6-0.6,0.6-1.4v-0.1h-0.6v-1.5h1.5v1.3C159.7,60.1,159.2,60.8,158.2,60.9z"/>
		<path d="M167.3,58.9v-9.2h1.2v4.5l3.7-4.5h1.3l-3.6,4.4l4.2,4.8h-1.7l-4-4.7v4.7C168.5,58.9,167.3,58.9,167.3,58.9z"/>
		<path d="M175.1,58.9l3.7-9.2h1.3l3.6,9.2h-1.4l-1-2.5h-3.9l-1,2.5H175.1z M177.7,55.4h3.2l-1.6-4L177.7,55.4z"/>
		<path d="M185.6,58.9v-9.2h1.3l4.6,7.1v-7.1h1.1v9.2h-1.3l-4.6-7.1v7.1H185.6z"/>
		<path d="M199.3,59.2c-1.3,0-2.4-0.4-3.1-1.3c-0.8-0.9-1.2-2.1-1.2-3.5s0.4-2.6,1.2-3.5c0.8-0.9,1.8-1.3,3.1-1.3s2.4,0.4,3.1,1.3
			c0.8,0.9,1.2,2.1,1.2,3.5s-0.4,2.6-1.2,3.5S200.6,59.2,199.3,59.2z M199.3,58.2c0.9,0,1.6-0.3,2.1-1c0.5-0.7,0.8-1.6,0.8-2.9
			c0-1.2-0.3-2.2-0.8-2.8c-0.5-0.7-1.2-1-2.1-1s-1.6,0.3-2.1,1c-0.5,0.7-0.8,1.6-0.8,2.8c0,1.2,0.3,2.2,0.8,2.9
			C197.7,57.8,198.4,58.2,199.3,58.2z"/>
	</g>
	<g>
		<path d="M58.7,56.7c0-0.1-4.2-9.9-4.2-21c0-9.7,4.2-20.9,4.2-21l0.2-0.5l-7.8-7.8l-0.5,0.2c-0.1,0-7.1,2.8-15.3,2.8
			C27,9.5,20,6.7,20,6.7l-0.5-0.2l-7.8,7.8l0.2,0.5c0,0.1,4.2,11.3,4.2,21c0,11-4.1,20.9-4.2,21l-0.2,0.5l7.8,7.8l0.5-0.2
			C20,64.8,27,62,35.3,62s15.3,2.8,15.4,2.8l0.5,0.2l7.8-7.8L58.7,56.7z M50.7,63.2c-1.8-0.6-8.1-2.7-15.5-2.7
			c-7.4,0-13.6,2.1-15.4,2.7l-6.4-6.4c0.9-2.2,4.1-11,4.1-21.1c0-8.9-3.3-18.8-4.1-21.1l6.4-6.4c1.8,0.6,8,2.7,15.4,2.7
			S48.9,9,50.7,8.3l6.4,6.4c-0.8,2.3-4.1,12.1-4.1,21.1c0,10.1,3.3,18.9,4.2,21.1L50.7,63.2z"/>
		<path d="M48.1,28.6c0-1.2,0.9-1.2,0.9-1.2c0.2-0.3,0.1-0.2,0.2-0.6c0.1-0.3-0.4-0.9-0.4-0.9c-0.1-0.4-0.3-0.6-0.7-0.4
			c-0.3,0.1,0,0.8-0.1,0.8c-0.1,0-0.4,0.1-0.4-0.4s0.6-1.2,0.6-1.2c0.1-0.2-0.3-1.8-0.9-2.2c-0.6-0.5-1.8,5.1-1.8,5.1l1,0.4
			c1.1,1.1,1.2,1.6,1.2,1.6v6c0,0-0.6,2.7-1.1,4s-0.3,0-0.3,0v-4.4l1.1-0.7v-1.9l-0.4-1v-0.7l0.4-0.4l0.1-1c0,0-0.6-0.8-0.9-0.8
			s-0.3,0-0.3,0s-0.8,0.3-0.8,0.9s0,0.6,0,0.6l0.6,0.7c0.2,0.3,0.7,1.7,0.3,2c-0.3,0.3-0.7,0.3-1,0c-0.3-0.3-0.4-0.7-0.9-0.7
			c-0.4,0-0.9,0.9-0.9,0.9s-0.4,0.7-0.3,1.2c0.1,0.6,0.3,0.9,0.6,1c0.2,0.1,0.2,0.6,0.7,0.6s0.2-0.4,0.4-0.4c0.2,0,0.6-0.2,0.6,0.6
			c0,0.8-0.2,2.6-0.7,3.2c-0.4,0.7-1.3-0.4-1.3-1c0-0.6,0.7-0.7,0.7-1.2c0-0.6-0.4-1-0.9-1c-0.4,0-0.9,0.7-0.9,0.9
			c0,0.2,0.1,2-0.1,2.1c-0.2,0.1-0.1,0.8-0.6,0.8s-0.2-0.4-0.8-0.4c-0.6,0-1.4,2.1-1,2.2c0.4,0.1,1-1.2,1.1-0.9
			c0.1,0.3,0.3-0.6,0.3,0.6c0,1.1,0,2.1,0,2.1s0.6,0.8,1.2,0.8c0.7,0,0.9-0.2,1.1-0.8c0.2-0.6,0-1.2,0-1.2l-0.2-0.8
			c-0.6,0-1,1.7-1.2,1.3C42,42.3,42,42.3,42,42.3s0.8-2,1.2-2s2,1,1.8,1.7c-0.2,0.7-0.2,0.7-0.2,0.7s-1.4,2.5-1.9,2.2
			c-0.4-0.2-0.4-0.7-0.9-0.7c-0.4,0-0.7,0.3-0.7,0.9c0,0.6,0.4,0.2,0.4,0.9c0,0.7-1.7,1.7-1.7,1.7s-0.4,0-0.8-0.7
			c-0.3-0.7-0.4-1.6-0.4-1.6S38.7,45,39.4,45c0.7,0,0.2,1.1,0.3,1.4c0.1,0.3,0.9,0.3,0.9,0.3s0.3,0,0.3-0.7c0-0.7-0.3-1.7-0.3-1.7
			c0.3-0.7,0.1-1.6,0.2-1.7c0.1-0.1-0.1-0.6-0.6-0.6c-0.4,0-1.2,1-1.2,1s-0.2,1-0.4,1.2c-0.2,0.2,0,0.4-0.2,0.2
			c-0.2-0.2-0.9-0.3-0.2-1.2c0.7-0.9,1-1,1-1c0.3-1.8-0.7-0.9-0.7-0.9s-2.1,3-6.7,4.8c0,0-0.7,0.7-0.2,2.6c0.4,1.9-0.8,1.9-0.8,1.9
			c-0.6-1.2-0.4-1.6-0.4-1.6s0.1,0,0.2-0.7c0.1-0.7-0.7-1.2-0.9-1.1c-0.2,0.1-0.9,0.4-0.7,1c0.2,0.6,0.8,0.3,0.8,0.7
			c0,0.3-0.2,1.1-0.6,1s-1-1-1-1s-0.3-0.4-1.3-0.3c-1,0.1-1.7,0.2-1.7,0.9s0.7,0.7,0.6,1.1c-0.1,0.4-1.8,0.6-1.8,0.3
			c0-0.2-2.1-1.1-2.1-1.1c-1.6,0.8,0,2.6,1.7,2.6s2.9-0.9,4.5-1.4c1.6-0.6,0.4-0.3,1.6,0.7c1.1,1,2.2-1,2.6-1.3
			c0.3-0.3,0.2-0.9,0.2-0.9c0.7-0.4,0.8-0.7,1.1-0.7s0.3,0,0.3,0s0.1,0.1,0.2,0.6c0.1,0.4,0.7,0.3,0.8-0.2c0.1-0.6-0.6-1.3-0.7-1.3
			s-2,0.2-1.7-0.2c0.3-0.4,4.4-2.5,4.7-3.2c0.3-0.8,0,1,0,1c0.8,0.6,1,0.1,1,0.8c0,0.7,0,2.1,0,2.1s-0.4,1.1-1.1,1.2
			c-0.7,0.1-0.4-0.9-0.2-1.1c0.2-0.2,0.2-0.2,0.2-0.2s0.1-0.3,0.1-1.1s-0.9-0.9-0.9-1s-1.3-0.3-1.2,0.3c0.1,0.7,0.2,0.2,0.6,0.7
			s0.7,0.2,0.7,0.8s-2.3,3-3.5,3.6s-0.4,0.4-1.7,0.7c-1.2,0.2-1.6-0.1-2-0.2c-0.4-0.1-1.4-0.1-1.8,0s0.8,0.7,0.9,0.8
			c0.1,0.1,2.2,0.3,2.8,0.3s1.6,0.1,1.6,0.1s1.1-0.9,2.5-1.3c1.3-0.4,1.1,0.2,2.2-0.3c1.1-0.6,1.6-1.4,1.7-1.6
			c0.1-0.1,0.1-0.1,0.1-0.1v-1.9l1,1c0,0,0.4,0.4,1.1,0.2c0.7-0.2,3.7-1.9,5.7-6.5c2-4.6,2.2-5.1,2.3-6.9c0.1-1.8,0-4.1,0-4.1
			C48.8,29.5,48.1,29.8,48.1,28.6z"/>
		<path d="M25.7,31.1L24.8,32c-0.4,0.4-0.4,1.1,0,1.5c0.2,0.2,0.5,0.3,0.7,0.3c0.3,0,0.5-0.1,0.7-0.3l0.9-0.9c0.7,1,1.1,1.9,1.4,2.6
			l0.7,2.4l0.7-2.4c0.3-1.1,0.8-2,1.4-2.6l0.9,0.9c0.2,0.2,0.5,0.3,0.7,0.3s0.5-0.1,0.7-0.3c0.4-0.4,0.4-1.1,0-1.5l-0.9-0.9
			c1-0.7,1.9-1.1,2.6-1.4l2.4-0.7l-2.4-0.7c-1.1-0.3-2-0.8-2.6-1.4l0.9-0.9c0.4-0.4,0.4-1.1,0-1.5c-0.2-0.2-0.5-0.3-0.7-0.3
			s-0.5,0.1-0.7,0.3l-0.9,0.9c-0.7-1-1.1-1.9-1.4-2.6l-0.7-2.4l-0.7,2.4c-0.3,1.1-0.8,2-1.4,2.6l-0.9-0.9c-0.2-0.2-0.5-0.3-0.7-0.3
			c-0.3,0-0.5,0.1-0.7,0.3c-0.4,0.4-0.4,1.1,0,1.5l0.9,0.9c-1,0.7-1.9,1.1-2.6,1.4L20.7,29l2.4,0.7C24.2,30.1,25.1,30.6,25.7,31.1z
			 M29.3,33c-0.3-0.5-0.6-1-1-1.5l1-1l1,1C29.9,32,29.6,32.4,29.3,33z M33.3,29c-0.5,0.3-1,0.6-1.5,1l-1-1l1-1
			C32.2,28.3,32.7,28.7,33.3,29z M29.3,25c0.3,0.5,0.6,1,1,1.5l-1,1l-1-1C28.6,26.1,29,25.6,29.3,25z M26.8,28l1,1l-1,1
			c-0.4-0.3-0.9-0.7-1.5-1C25.8,28.7,26.3,28.4,26.8,28z"/>
	</g>
</g>
</svg>
